<svg class="home__logo scene-element scene-element--fade-in-down" data-name="logo" xmlns="http://www.w3.org/2000/svg" viewBox="0 0 520.7 214.1">
  <title>Logo</title>
  <g>
    <path fill="#ffffff" d="M48,111L58.9,98.9c4.5,4.9,8.9,7.8,14.3,7.8,6.5,0,10.5-3.9,10.5-13V43.2h17.7V94.5c0,9.3-2.7,16.3-7.4,21s-11.9,7.3-20.4,7.3A32,32,0,0,1,48,111Z" transform="translate(-21 -14)"/>
    <path fill="#ffffff" d="M143.2,42.6h15.9l33.6,79h-18L167.5,104H134.3l-7.2,17.6H109.5Zm18.1,46.2L150.9,63.4,140.5,88.8h20.8Z" transform="translate(-21 -14)"/>
    <path fill="#ffffff" d="M198.3,110.2L208.5,98c7.1,5.8,14.5,9.5,23.4,9.5,7.1,0,11.3-2.8,11.3-7.4V99.9c0-4.4-2.7-6.6-15.8-10-15.8-4-26-8.4-26-24V65.7c0-14.2,11.4-23.7,27.5-23.7A45.21,45.21,0,0,1,258,52l-9,13c-7-4.8-13.8-7.7-20.4-7.7s-10.1,3-10.1,6.8v0.2c0,5.2,3.4,6.8,16.9,10.3,15.9,4.1,24.9,9.9,24.9,23.5v0.2c0,15.6-11.9,24.3-28.8,24.3A48.72,48.72,0,0,1,198.3,110.2Z" transform="translate(-21 -14)"/>
    <path fill="#ffffff" d="M272,82.6V82.4c0-22.3,17.6-40.6,41.8-40.6s41.6,18,41.6,40.4v0.2c0,22.3-17.6,40.6-41.8,40.6S272,104.9,272,82.6Zm65.3,0V82.4c0-13.5-9.9-24.7-23.8-24.7S290,68.7,290,82.2v0.2c0,13.5,9.9,24.7,23.8,24.7S337.3,96.1,337.3,82.6Z" transform="translate(-21 -14)"/>
    <path fill="#ffffff" d="M370.8,43.2h15.9l36.8,48.3V43.2h17v78.5H425.8l-38-49.9v49.9h-17V43.2h0Z" transform="translate(-21 -14)"/>
  </g>
  <g>
    <path fill="#ffffff" d="M21.1,144.8H57.7v3.5H24.9v20.2H54.4V172H24.9v20.7H58v3.5H21V144.8h0.1Z" transform="translate(-21 -14)"/>
    <path fill="#ffffff" d="M84.6,148.4H66.7v-3.5h39.7v3.5h-18v47.9H84.6V148.4Z" transform="translate(-21 -14)"/>
    <path fill="#ffffff" d="M111.7,170.7v-0.1c0-14.6,10.9-26.6,25.7-26.6,9.2,0,14.7,3.4,20,8.2l-2.7,2.8c-4.5-4.3-9.6-7.6-17.3-7.6-12.3,0-21.7,10.1-21.7,23v0.1c0,13,9.5,23.2,21.8,23.2,7.4,0,12.5-2.9,17.7-8l2.6,2.5c-5.4,5.4-11.3,9-20.4,9C122.5,197.2,111.7,185.5,111.7,170.7Z" transform="translate(-21 -14)"/>
    <path fill="#ffffff" d="M164.4,170.7v-0.1c0-14,10.4-26.6,25.9-26.6s25.8,12.4,25.8,26.5v0.1c0,14-10.4,26.6-25.9,26.6S164.4,184.7,164.4,170.7Zm47.8,0v-0.1c0-12.7-9.3-23.2-22-23.2s-21.8,10.3-21.8,23v0.1c0,12.7,9.3,23.2,22,23.2S212.2,183.4,212.2,170.7Z" transform="translate(-21 -14)"/>
    <path fill="#ffffff" d="M221.8,144.8h4.3l20.1,47.3,20.2-47.3h4l-22.6,51.8h-3.4Z" transform="translate(-21 -14)"/>
    <path fill="#ffffff" d="M281.9,144.8h3.8v51.5h-3.8V144.8Z" transform="translate(-21 -14)"/>
    <path fill="#ffffff" d="M315.8,148.4H297.9v-3.5h39.7v3.5H319.7v47.9h-3.8V148.4h-0.1Z" transform="translate(-21 -14)"/>
    <path fill="#ffffff" d="M342.8,170.7v-0.1c0-14.6,10.9-26.6,25.7-26.6,9.2,0,14.7,3.4,20,8.2l-2.7,2.8c-4.5-4.3-9.6-7.6-17.3-7.6-12.3,0-21.7,10.1-21.7,23v0.1c0,13,9.5,23.2,21.8,23.2,7.4,0,12.5-2.9,17.7-8l2.6,2.5c-5.4,5.4-11.3,9-20.4,9C353.7,197.2,342.8,185.5,342.8,170.7Z" transform="translate(-21 -14)"/>
    <path fill="#ffffff" d="M399.3,144.8h3.8v23.8H436V144.8h3.8v51.5H436V172.2H403.1v24.1h-3.8V144.8Z" transform="translate(-21 -14)"/>
  </g>
  <polygon fill="#f87000" points="520.7 0 466.6 214.1 442.8 214.1 496.9 0 520.7 0"/>
</svg>
